<svg xmlns="http://www.w3.org/2000/svg" viewBox="0 0 2832.000000 2252.810872" style="width:auto">
<metadata>
Created by potrace 1.16, written by Peter Selinger 2001-2019
</metadata>
<g transform="translate(-179.000000,2387.810872) scale(0.100000,-0.100000)"
fill="#C1A053" stroke="none">
<path d="M1868 23858 c-17 -17 -19 -27 -13 -79 7 -59 7 -60 -29 -92 -36 -33
-36 -33 -36 -810 0 -609 3 -779 13 -787 6 -6 21 -17 31 -24 14 -9 19 -24 18
-51 -1 -31 4 -42 33 -68 35 -31 35 -31 35 -131 0 -101 0 -101 32 -128 32 -26
32 -26 30 -126 -3 -83 0 -102 13 -114 49 -40 55 -49 55 -87 0 -33 5 -43 30
-61 25 -17 30 -28 30 -60 0 -24 6 -44 16 -52 56 -47 57 -47 50 -110 -7 -59 -7
-60 28 -92 29 -26 36 -40 36 -69 0 -35 5 -44 43 -70 13 -9 20 -27 21 -54 2
-38 10 -49 99 -136 92 -89 97 -96 97 -135 0 -36 4 -44 30 -57 26 -13 30 -21
30 -55 0 -39 7 -47 225 -264 209 -208 225 -227 225 -260 0 -19 7 -41 15 -48 9
-7 76 -73 149 -145 121 -121 137 -133 169 -133 28 0 40 -6 57 -30 17 -24 29
-30 59 -30 53 0 131 -73 131 -124 0 -42 22 -66 61 -66 19 0 42 -12 68 -35 28
-26 48 -35 73 -35 19 0 39 -5 46 -12 17 -17 15 -83 -3 -98 -25 -21 -87 -15
-110 12 -52 59 -106 98 -135 98 -20 0 -40 11 -64 35 -33 33 -39 35 -100 35
-65 0 -65 0 -224 160 -140 141 -163 160 -191 160 -29 0 -52 19 -192 160 -144
145 -162 160 -193 160 -34 0 -86 43 -133 110 -20 28 -27 26 -78 -26 -44 -46
-45 -48 -45 -116 0 -71 10 -87 115 -176 8 -7 15 -29 15 -50 0 -30 6 -42 32
-63 31 -26 32 -29 30 -93 -3 -66 -3 -66 97 -165 93 -92 100 -102 99 -137 -1
-26 4 -41 18 -51 68 -48 104 -92 104 -127 0 -33 16 -52 223 -258 212 -212 224
-226 230 -268 3 -25 11 -46 17 -48 6 -2 84 -78 174 -168 145 -145 167 -164
196 -164 29 0 51 -18 191 -160 145 -147 161 -160 194 -160 24 0 41 -7 53 -21
36 -44 44 -49 82 -49 32 0 43 -6 60 -30 18 -25 28 -30 61 -30 28 0 44 -6 57
-21 72 -87 168 -169 198 -169 47 0 64 -9 64 -35 0 -33 -16 -40 -90 -37 -65 2
-66 1 -114 -42 -52 -48 -55 -73 -14 -91 18 -8 24 -20 26 -50 2 -31 11 -48 38
-72 27 -25 34 -40 34 -68 0 -52 77 -125 131 -125 30 0 42 -6 59 -30 17 -24 29
-30 56 -30 30 0 45 -10 99 -65 65 -65 65 -65 131 -65 66 0 66 0 129 -65 63
-65 63 -65 129 -65 61 0 67 -2 100 -35 35 -35 35 -35 135 -35 99 0 100 0 121
-30 18 -25 28 -30 61 -30 30 0 44 -6 65 -29 25 -28 29 -29 131 -33 104 -3 105
-3 131 -36 27 -32 27 -32 163 -32 135 0 135 0 157 -30 21 -28 26 -30 92 -30
67 0 71 -1 101 -35 32 -35 32 -35 199 -35 166 0 166 0 188 -30 23 -30 23 -30
222 -30 199 0 199 0 224 -32 25 -33 26 -33 135 -38 105 -5 110 -6 131 -32 21
-28 21 -28 348 -28 327 0 327 0 353 -32 27 -32 27 -32 325 -36 299 -4 299 -4
322 -33 23 -29 23 -29 192 -29 169 0 169 0 190 -30 21 -30 21 -30 315 -30 294
0 294 0 329 -35 35 -35 35 -35 135 -35 100 0 101 0 123 -30 20 -28 26 -30 90
-30 65 0 70 -2 104 -35 35 -35 35 -35 133 -35 96 0 98 -1 124 -30 20 -22 36
-30 62 -30 26 0 43 -8 69 -35 26 -26 44 -35 69 -35 25 0 41 -8 60 -30 27 -30
27 -30 158 -30 131 0 131 0 195 -65 64 -65 64 -65 133 -65 66 0 71 -2 91 -30
17 -24 29 -30 58 -30 32 0 44 -8 99 -65 62 -65 62 -65 131 -65 68 0 68 0 127
-65 53 -57 64 -65 97 -65 29 0 44 -7 63 -29 18 -19 39 -30 66 -34 34 -4 54
-21 163 -131 113 -115 128 -126 160 -126 25 0 42 -7 54 -21 35 -43 44 -49 79
-49 51 0 193 -144 193 -196 0 -51 78 -124 131 -124 30 0 42 -6 59 -30 17 -24
29 -30 58 -30 31 0 45 -9 103 -67 37 -38 75 -74 83 -81 9 -7 16 -28 16 -48 0
-33 14 -50 190 -225 174 -172 190 -191 190 -223 0 -33 75 -120 179 -208 14
-12 21 -30 21 -54 0 -32 10 -46 95 -129 89 -88 95 -96 95 -134 0 -35 4 -43 30
-56 26 -13 30 -21 30 -55 0 -36 7 -46 65 -104 56 -55 65 -69 65 -100 0 -20 7
-41 16 -48 48 -39 54 -50 54 -86 0 -31 6 -43 30 -60 24 -18 30 -30 30 -62 0
-31 6 -43 32 -63 25 -21 31 -32 30 -61 -1 -31 6 -43 51 -87 29 -28 59 -55 67
-59 12 -7 14 -25 12 -79 -2 -74 -2 -74 52 -119 10 -8 16 -28 16 -52 0 -32 5
-43 30 -60 25 -17 30 -28 30 -60 0 -24 6 -44 16 -52 57 -47 55 -43 52 -149 -3
-100 -3 -100 30 -125 31 -24 32 -29 32 -94 0 -69 3 -75 43 -103 12 -8 20 -29
23 -56 5 -57 18 -71 65 -71 31 0 42 -6 59 -31 36 -49 64 -37 68 28 3 45 7 55
33 73 27 20 29 25 29 91 0 71 1 73 55 117 14 12 16 46 15 295 -1 155 -1 290
-1 299 1 10 15 24 31 33 30 16 30 16 30 122 0 107 0 107 34 138 35 32 35 32
33 256 -2 224 -2 224 30 253 33 30 33 30 33 677 0 577 -2 650 -16 661 -52 43
-50 30 -48 238 2 194 2 194 -32 225 -34 31 -34 31 -34 166 0 134 0 134 -31
160 -32 26 -32 26 -30 286 2 231 0 263 -14 275 -49 40 -55 49 -55 88 0 31 -5
42 -22 51 -31 16 -38 28 -38 70 0 28 -7 42 -36 67 -36 32 -36 32 -34 184 3
195 5 181 -30 201 -29 18 -30 21 -30 91 0 70 -1 73 -35 103 -29 26 -34 37 -33
68 1 27 -4 42 -18 51 -39 27 -44 36 -44 74 0 32 -5 43 -30 60 -25 18 -30 28
-30 61 0 38 -6 47 -54 87 -12 9 -16 31 -16 80 0 73 -4 83 -37 101 -18 9 -23
20 -23 51 0 36 -7 46 -65 103 -57 55 -65 68 -65 100 0 21 -7 42 -16 49 -48 40
-54 49 -54 88 0 31 -5 42 -22 51 -31 16 -38 28 -38 69 0 31 -9 44 -65 95 -57
53 -65 64 -65 97 0 33 -9 46 -77 113 -43 42 -86 81 -95 86 -13 7 -18 22 -18
51 0 39 -5 46 -93 132 -85 82 -95 95 -100 136 -3 26 -13 50 -24 57 -10 7 -82
76 -160 154 -135 133 -143 143 -143 180 0 43 -18 59 -68 59 -25 0 -184 147
-330 306 -7 8 -31 14 -52 14 -32 0 -43 6 -60 30 -17 24 -28 30 -60 30 -48 0
-70 21 -70 67 0 49 -84 133 -133 133 -26 0 -42 11 -90 61 -48 51 -64 62 -99
67 -35 4 -52 15 -99 64 -45 47 -62 58 -88 58 -23 0 -41 10 -67 35 -33 33 -39
35 -100 35 -66 0 -66 0 -130 65 -58 58 -68 65 -104 65 -31 0 -42 5 -51 23 -16
30 -28 37 -66 37 -23 0 -42 10 -67 35 -26 26 -44 35 -69 35 -25 0 -41 8 -60
30 -25 28 -32 30 -97 30 -65 0 -71 2 -91 29 -16 22 -31 30 -66 34 -36 4 -51
12 -70 36 -20 25 -32 31 -63 31 -32 0 -43 6 -60 30 -21 30 -22 30 -121 30
-100 0 -100 0 -136 35 -28 27 -44 35 -74 35 -30 0 -42 6 -59 30 -17 24 -29 30
-59 30 -30 0 -43 7 -68 35 -31 35 -31 35 -166 35 -136 0 -136 0 -157 30 -17
24 -28 30 -60 30 -38 0 -60 13 -79 48 -7 13 -25 17 -81 18 -67 0 -73 2 -101
32 -30 32 -30 32 -164 32 -134 0 -134 0 -155 30 -20 28 -25 30 -90 30 -66 0
-71 2 -104 35 -35 35 -35 35 -135 35 -100 0 -101 0 -123 30 -22 30 -22 30
-155 30 -132 0 -132 0 -167 35 -35 35 -35 35 -200 35 -165 0 -165 0 -186 30
-21 30 -21 30 -220 30 -199 0 -199 0 -234 34 -34 35 -34 35 -552 36 -519 1
-519 1 -542 30 -23 30 -23 30 -287 30 -264 0 -264 0 -287 29 -23 30 -23 30
-161 33 -138 3 -138 3 -163 36 -25 32 -25 32 -223 32 -198 0 -198 0 -224 30
-25 28 -33 30 -92 30 -62 0 -68 2 -101 35 -35 35 -35 35 -198 35 -163 0 -163
0 -189 30 -20 22 -36 30 -62 30 -26 0 -43 8 -69 35 -26 26 -44 35 -69 35 -25
0 -41 8 -60 30 -27 30 -29 30 -127 30 -99 0 -99 0 -129 33 -29 30 -35 32 -92
30 -57 -2 -63 0 -96 32 -28 27 -44 35 -74 35 -30 0 -42 6 -59 30 -21 30 -22
30 -121 30 -100 0 -100 0 -164 65 -65 65 -65 65 -130 65 -62 0 -68 2 -101 35
-26 26 -43 35 -69 35 -29 0 -44 10 -98 65 -64 65 -64 65 -125 62 -61 -2 -61
-2 -157 96 -85 85 -101 97 -131 97 -31 0 -48 13 -164 130 -112 114 -133 130
-161 130 -28 0 -46 14 -130 100 -54 55 -103 100 -109 100 -5 0 -10 20 -10 44
0 40 -4 48 -35 72 -30 22 -35 33 -35 66 0 39 -19 63 -110 140 -13 12 -20 30
-20 54 0 32 -9 45 -66 100 -66 64 -66 64 -59 124 7 60 7 61 -29 93 -36 33 -36
33 -36 133 0 100 0 100 -35 132 -36 31 -36 31 -29 95 6 64 6 64 -30 92 -32 24
-36 33 -36 71 0 56 -12 61 -133 62 -76 1 -91 -2 -109 -20z"/>
<path d="M29813 23869 c-19 -7 -23 -16 -23 -52 0 -39 -4 -48 -36 -72 -36 -28
-36 -28 -30 -92 7 -64 7 -64 -29 -95 -35 -32 -35 -32 -35 -132 0 -100 0 -100
-36 -133 -36 -32 -36 -33 -29 -93 7 -60 7 -60 -59 -124 -57 -55 -66 -68 -66
-100 0 -24 -7 -42 -20 -54 -91 -77 -110 -101 -110 -140 0 -33 -5 -44 -35 -66
-31 -24 -35 -32 -35 -72 0 -24 -5 -44 -10 -44 -6 0 -55 -45 -109 -100 -84 -86
-102 -100 -130 -100 -28 0 -49 -16 -161 -130 -116 -117 -133 -130 -164 -130
-30 0 -46 -12 -131 -97 -96 -98 -96 -98 -157 -96 -61 3 -61 3 -125 -62 -54
-55 -69 -65 -98 -65 -26 0 -43 -9 -69 -35 -33 -33 -39 -35 -101 -35 -65 0 -65
0 -130 -65 -64 -65 -64 -65 -164 -65 -99 0 -100 0 -121 -30 -17 -24 -29 -30
-59 -30 -30 0 -46 -8 -74 -35 -33 -32 -39 -34 -96 -32 -57 2 -63 0 -92 -30
-30 -33 -30 -33 -129 -33 -98 0 -100 0 -127 -30 -19 -22 -35 -30 -60 -30 -25
0 -43 -9 -69 -35 -26 -27 -43 -35 -69 -35 -26 0 -42 -8 -62 -30 -26 -30 -26
-30 -189 -30 -163 0 -163 0 -198 -35 -33 -33 -39 -35 -101 -35 -59 0 -67 -2
-92 -30 -26 -30 -26 -30 -224 -30 -198 0 -198 0 -223 -32 -25 -33 -25 -33
-163 -36 -138 -3 -138 -3 -161 -33 -23 -29 -23 -29 -287 -29 -264 0 -264 0
-287 -30 -23 -29 -23 -29 -542 -30 -518 -1 -518 -1 -552 -36 -35 -34 -35 -34
-234 -34 -199 0 -199 0 -220 -30 -21 -30 -21 -30 -186 -30 -165 0 -165 0 -200
-35 -35 -35 -35 -35 -167 -35 -133 0 -133 0 -155 -30 -22 -30 -23 -30 -123
-30 -100 0 -100 0 -135 -35 -33 -33 -38 -35 -104 -35 -65 0 -70 -2 -90 -30
-21 -30 -21 -30 -155 -30 -134 0 -134 0 -164 -32 -28 -30 -34 -32 -101 -32
-56 -1 -74 -5 -81 -18 -19 -35 -41 -48 -79 -48 -32 0 -43 -6 -60 -30 -21 -30
-21 -30 -157 -30 -135 0 -135 0 -166 -35 -25 -28 -38 -35 -68 -35 -30 0 -42
-6 -59 -30 -17 -24 -29 -30 -59 -30 -30 0 -46 -8 -74 -35 -36 -35 -36 -35
-136 -35 -99 0 -100 0 -121 -30 -17 -24 -28 -30 -60 -30 -31 0 -43 -6 -63 -31
-19 -24 -34 -32 -70 -36 -35 -4 -50 -12 -66 -34 -20 -27 -26 -29 -91 -29 -65
0 -72 -2 -97 -30 -19 -22 -35 -30 -60 -30 -25 0 -43 -9 -69 -35 -25 -25 -44
-35 -67 -35 -38 0 -50 -7 -66 -37 -9 -18 -20 -23 -51 -23 -36 0 -46 -7 -104
-65 -64 -65 -64 -65 -130 -65 -61 0 -67 -2 -100 -35 -26 -25 -44 -35 -67 -35
-26 0 -43 -11 -88 -58 -47 -49 -64 -60 -99 -64 -35 -5 -51 -16 -99 -67 -48
-50 -64 -61 -90 -61 -49 0 -133 -84 -133 -133 0 -46 -22 -67 -70 -67 -32 0
-43 -6 -60 -30 -17 -24 -28 -30 -60 -30 -21 0 -45 -6 -52 -14 -146 -159 -305
-306 -330 -306 -50 0 -68 -16 -68 -59 0 -37 -8 -47 -142 -180 -79 -78 -151
-147 -161 -154 -11 -7 -21 -31 -24 -57 -5 -41 -15 -54 -100 -136 -88 -86 -93
-93 -93 -132 0 -29 -5 -44 -17 -51 -10 -5 -53 -44 -96 -86 -68 -67 -77 -80
-77 -113 0 -33 -8 -44 -65 -97 -56 -51 -65 -64 -65 -95 0 -41 -7 -53 -37 -69
-18 -9 -23 -20 -23 -51 0 -39 -6 -48 -54 -88 -9 -7 -16 -28 -16 -49 0 -32 -8
-45 -65 -100 -58 -57 -65 -67 -65 -103 0 -31 -5 -42 -22 -51 -34 -18 -38 -28
-38 -101 0 -49 -4 -71 -16 -80 -48 -40 -54 -49 -54 -87 0 -33 -5 -43 -30 -61
-25 -17 -30 -28 -30 -60 0 -38 -5 -47 -44 -74 -14 -9 -19 -24 -18 -51 1 -31
-4 -42 -33 -68 -34 -30 -35 -33 -35 -103 0 -70 -1 -73 -30 -91 -35 -20 -33 -6
-30 -201 2 -152 2 -152 -34 -184 -29 -25 -36 -39 -36 -67 0 -42 -7 -54 -37
-70 -18 -9 -23 -20 -23 -51 0 -39 -6 -48 -55 -88 -14 -12 -16 -44 -14 -275 2
-260 2 -260 -30 -286 -31 -26 -31 -26 -31 -160 0 -135 0 -135 -34 -166 -34
-31 -34 -31 -32 -225 2 -208 4 -195 -48 -238 -14 -11 -16 -84 -16 -661 0 -647
0 -647 33 -677 32 -29 32 -29 30 -253 -2 -224 -2 -224 33 -256 34 -31 34 -31
34 -138 0 -106 0 -106 30 -122 17 -9 30 -23 31 -33 0 -9 0 -144 -1 -299 -1
-249 1 -283 15 -295 54 -44 55 -46 55 -117 0 -66 2 -71 29 -91 26 -18 30 -28
33 -73 4 -65 32 -77 68 -28 17 25 28 31 59 31 47 0 60 14 65 71 3 27 11 48 23
56 40 28 43 34 43 103 0 65 1 70 33 94 32 25 32 25 29 125 -3 106 -5 102 52
149 10 8 16 28 16 52 0 32 5 43 30 60 25 17 30 28 30 60 0 24 6 44 16 52 54
45 54 45 52 119 -2 54 0 72 12 79 8 4 38 31 67 59 45 44 52 56 51 87 -1 29 5
40 30 61 26 20 32 32 32 63 0 32 6 44 30 62 24 17 30 29 30 60 0 36 6 47 54
86 9 7 16 28 16 48 0 31 9 45 65 100 58 58 65 68 65 104 0 34 4 42 30 55 26
13 30 21 30 56 0 38 6 46 95 134 85 83 95 97 95 129 0 24 7 42 21 54 104 88
179 175 179 208 0 32 16 51 190 223 176 175 190 192 190 225 0 20 7 41 16 48
8 7 46 43 83 81 58 58 72 67 103 67 29 0 41 6 58 30 17 24 29 30 59 30 53 0
131 73 131 124 0 53 142 196 194 196 25 0 42 7 54 21 35 43 44 49 78 49 32 0
48 12 160 126 109 110 129 127 163 131 27 4 48 15 66 34 19 22 34 29 63 29 33
0 44 8 97 65 59 65 59 65 127 65 69 0 69 0 131 65 55 57 67 65 99 65 29 0 41
6 58 30 20 28 25 30 91 30 69 0 69 0 133 65 64 65 64 65 195 65 131 0 131 0
158 30 19 22 35 30 60 30 25 0 43 9 69 35 26 27 43 35 69 35 26 0 42 8 62 30
26 29 28 30 124 30 98 0 98 0 133 35 34 33 39 35 104 35 64 0 70 2 90 30 22
30 23 30 123 30 100 0 100 0 135 35 35 35 35 35 329 35 294 0 294 0 315 30 21
30 21 30 190 30 169 0 169 0 192 29 23 29 23 29 322 33 298 4 298 4 325 36 26
32 26 32 353 32 327 0 327 0 348 28 21 26 26 27 131 32 109 5 110 5 135 38 25
32 25 32 224 32 199 0 199 0 222 30 22 30 22 30 188 30 167 0 167 0 199 35 30
34 34 35 101 35 66 0 71 2 92 30 22 30 22 30 157 30 136 0 136 0 163 32 26 33
27 33 131 36 102 4 106 5 131 33 21 23 35 29 65 29 33 0 43 5 61 30 21 30 22
30 121 30 100 0 100 0 135 35 33 33 39 35 100 35 66 0 66 0 129 65 63 65 63
65 129 65 66 0 66 0 131 65 54 55 69 65 99 65 27 0 39 6 56 30 17 24 29 30 59
30 54 0 131 73 131 125 0 28 7 43 34 68 27 24 36 41 38 72 2 30 8 42 26 50 41
18 38 43 -14 91 -48 43 -49 44 -114 42 -74 -3 -90 4 -90 37 0 26 17 35 64 35
30 0 126 82 198 169 13 15 29 21 57 21 33 0 43 5 61 30 18 25 28 30 61 30 28
0 44 6 57 21 35 43 44 49 78 49 32 0 49 14 193 160 140 142 162 160 191 160
29 0 51 19 196 164 90 90 168 166 174 168 6 2 14 23 17 48 6 42 18 56 230 268
207 206 223 225 223 258 0 35 36 79 104 127 14 10 19 25 18 51 -1 35 6 45 99
137 100 99 100 99 97 165 -2 64 -1 67 30 93 26 21 32 33 32 63 0 21 7 43 15
50 105 89 115 105 115 176 0 68 -1 70 -45 116 -51 52 -58 54 -78 26 -47 -67
-99 -110 -133 -110 -31 0 -49 -15 -193 -160 -140 -141 -163 -160 -192 -160
-28 0 -51 -19 -191 -160 -159 -160 -159 -160 -224 -160 -61 0 -67 -2 -100 -35
-24 -24 -44 -35 -64 -35 -29 0 -83 -39 -135 -98 -23 -27 -85 -33 -110 -12 -18
15 -20 81 -3 98 7 7 27 12 46 12 25 0 45 9 73 35 26 23 49 35 68 35 39 0 61
24 61 66 0 51 78 124 131 124 30 0 42 6 59 30 17 24 29 30 57 30 32 0 48 12
169 133 73 72 140 138 149 145 8 7 15 29 15 48 0 33 16 52 225 260 218 217
225 225 225 264 0 34 4 42 30 55 26 13 30 21 30 57 0 39 5 46 97 135 89 87 97
98 99 136 1 27 8 45 21 54 38 26 43 35 43 70 0 29 7 43 36 69 35 32 35 33 28
92 -7 63 -6 63 50 110 10 8 16 28 16 52 0 32 5 43 30 60 25 18 30 28 30 61 0
38 6 47 55 87 13 12 16 31 13 114 -2 100 -2 100 30 126 32 27 32 27 32 128 0
100 0 100 35 131 29 26 34 37 33 68 -1 27 4 42 18 51 10 7 25 18 32 24 9 8 12
178 12 787 0 777 0 777 -36 810 -36 32 -36 33 -29 92 10 87 -5 100 -122 99
-48 0 -98 -4 -110 -9z"/>
<path d="M2080 17952 c-21 -7 -25 -15 -28 -54 -3 -39 -8 -50 -38 -73 -34 -26
-34 -26 -34 -801 0 -853 -5 -773 55 -823 12 -10 16 -27 15 -65 -4 -87 -2 -95
30 -111 30 -16 30 -16 30 -185 0 -183 -3 -170 56 -219 13 -11 15 -25 11 -67
-7 -70 0 -92 34 -110 25 -12 29 -20 29 -57 0 -35 5 -46 32 -68 26 -22 32 -35
34 -70 1 -28 8 -47 21 -56 68 -49 103 -92 103 -128 0 -29 7 -43 35 -68 34 -29
35 -33 35 -100 0 -68 0 -68 95 -161 86 -83 95 -96 95 -129 0 -20 7 -42 15 -49
95 -79 175 -170 175 -199 0 -51 16 -69 60 -69 58 0 140 -82 140 -141 0 -42 21
-59 75 -59 42 0 115 -80 115 -127 0 -49 14 -63 61 -63 36 0 51 -13 309 -271
291 -292 303 -309 218 -309 -32 0 -46 6 -70 32 -23 25 -41 34 -77 38 -46 5
-46 5 -51 52 -7 59 -17 69 -74 75 -34 4 -50 11 -58 27 -15 29 -28 36 -67 36
-27 0 -44 11 -97 65 -53 53 -70 65 -97 65 -26 0 -43 11 -96 65 -54 55 -68 65
-98 65 -48 0 -123 73 -123 120 0 53 -15 70 -63 70 -39 0 -47 5 -102 65 -59 65
-59 65 -126 65 -89 0 -99 -10 -99 -100 0 -66 1 -68 35 -94 35 -27 35 -28 33
-97 -3 -69 -2 -71 30 -97 26 -22 32 -34 32 -64 0 -21 7 -43 15 -50 102 -87
175 -172 175 -203 0 -31 84 -128 185 -213 9 -7 15 -29 15 -52 0 -32 5 -43 30
-60 24 -17 30 -29 30 -60 0 -54 72 -130 123 -130 52 0 137 -83 137 -133 0 -52
393 -447 446 -447 28 0 46 -14 133 -100 84 -84 105 -100 132 -100 26 0 49 -18
155 -125 112 -113 127 -125 159 -125 30 0 44 -9 98 -65 63 -65 63 -65 124 -65
56 0 64 -3 112 -42 88 -72 72 -91 -73 -89 -126 2 -130 -1 -129 -100 1 -72 20
-100 106 -162 11 -7 21 -31 24 -57 7 -58 18 -70 62 -70 32 0 44 -8 96 -61 48
-51 66 -62 99 -67 34 -4 51 -15 99 -66 58 -60 58 -60 128 -61 67 -1 71 -2 95
-33 21 -26 32 -32 64 -32 32 0 44 -6 62 -30 20 -28 26 -30 90 -30 65 0 70 -2
104 -35 35 -35 35 -35 134 -35 99 0 100 0 122 -30 17 -24 29 -30 60 -30 29 0
45 -7 72 -35 35 -35 35 -35 135 -35 99 0 100 0 121 -30 21 -30 21 -30 125 -30
104 0 104 0 128 -32 25 -31 26 -32 134 -36 105 -4 109 -4 131 -33 23 -29 23
-29 287 -29 264 0 264 0 285 -27 21 -28 24 -28 161 -33 140 -5 140 -5 165 -37
25 -32 28 -33 98 -33 69 0 73 -1 94 -30 23 -30 23 -30 508 -30 485 0 485 0
520 -35 35 -35 35 -35 198 -35 163 0 163 0 189 -30 27 -30 27 -30 191 -30 163
0 163 0 199 -35 36 -35 36 -35 296 -35 260 0 260 0 281 -30 20 -29 25 -30 95
-30 70 0 75 -1 94 -29 21 -29 23 -29 126 -33 103 -3 105 -3 134 -35 24 -26 38
-33 69 -33 31 0 42 -6 60 -30 18 -23 30 -30 58 -30 26 0 43 -8 70 -35 35 -35
35 -35 133 -35 96 0 98 -1 124 -30 25 -28 32 -30 95 -30 68 0 68 0 127 -65 60
-64 60 -64 130 -65 70 -1 70 -1 118 -49 38 -39 47 -55 47 -84 0 -28 6 -40 30
-57 17 -12 30 -30 30 -40 0 -11 -13 -26 -30 -35 -30 -16 -30 -16 -30 -1278 0
-1262 0 -1262 30 -1287 30 -25 30 -25 30 -1157 0 -1020 1 -1133 16 -1145 57
-47 55 -43 52 -149 -2 -100 -2 -100 30 -125 32 -25 32 -25 32 -159 0 -110 3
-137 16 -147 55 -46 57 -48 50 -102 -7 -67 -1 -88 35 -108 25 -15 29 -23 29
-59 0 -36 6 -48 36 -75 35 -32 35 -33 28 -92 -7 -63 -6 -63 50 -110 9 -7 16
-28 16 -49 0 -32 8 -44 65 -99 66 -62 66 -62 63 -129 -3 -64 -2 -67 30 -93 26
-22 32 -34 32 -65 0 -25 7 -43 20 -55 90 -76 110 -101 110 -139 0 -34 8 -45
65 -98 58 -53 65 -63 65 -97 0 -21 7 -43 15 -50 9 -7 145 -142 304 -300 255
-255 292 -288 320 -288 26 0 47 -16 131 -100 101 -100 101 -100 167 -100 66 0
66 0 124 -61 47 -50 64 -62 98 -66 27 -4 48 -15 66 -34 25 -29 25 -29 190 -29
165 0 165 0 192 -30 26 -30 26 -30 285 -30 259 0 259 0 294 -35 24 -24 44 -35
64 -35 20 0 40 11 64 35 35 35 35 35 197 35 161 0 161 0 240 79 93 93 103 127
49 171 -30 25 -30 25 -30 2320 0 2295 0 2295 30 2320 30 25 30 25 30 255 0
230 0 230 -31 256 -31 25 -31 25 -31 383 1 389 5 357 -52 404 -14 11 -16 43
-16 212 0 206 1 203 -44 234 -18 12 -19 29 -17 308 2 296 2 296 -33 323 -36
27 -36 27 -36 166 0 138 0 138 -30 159 -25 17 -30 28 -30 60 0 24 -6 44 -16
52 -59 49 -56 36 -53 215 3 154 2 166 -16 179 -42 29 -45 35 -45 104 0 51 -4
73 -16 82 -55 46 -57 48 -50 102 7 67 1 88 -35 108 -29 17 -29 17 -29 127 0
110 0 110 -29 127 -36 21 -42 43 -35 110 7 54 5 56 -50 102 -13 10 -16 34 -16
117 0 104 0 104 -30 125 -25 17 -30 28 -30 60 0 23 -6 45 -15 52 -110 94 -115
102 -115 175 0 67 -1 71 -35 100 -29 26 -35 38 -35 72 0 32 -5 43 -22 52 -31
16 -38 28 -38 71 0 29 -6 41 -30 58 -24 17 -30 29 -30 56 0 42 -15 74 -35 74
-19 0 -35 32 -35 72 0 28 -11 43 -65 93 -60 56 -65 63 -65 102 0 37 -4 44 -30
58 -26 13 -30 21 -30 58 0 39 -5 47 -65 102 -58 52 -65 63 -65 96 0 30 -6 42
-32 62 -25 20 -31 32 -30 60 1 32 -7 44 -83 119 -47 46 -91 89 -100 96 -8 7
-15 29 -15 49 0 32 -10 45 -95 128 -83 82 -95 97 -95 127 0 32 -22 56 -275
309 -151 151 -282 280 -290 287 -8 7 -15 29 -15 50 0 48 -14 62 -62 62 -26 0
-44 6 -56 20 -88 104 -162 167 -200 173 -34 4 -52 16 -100 66 -51 52 -64 61
-95 61 -45 0 -67 22 -67 67 0 30 -8 44 -50 84 -50 48 -51 49 -116 49 -65 0
-65 0 -158 95 -93 95 -93 95 -194 95 -100 0 -101 0 -122 30 -20 28 -25 30 -91
30 -69 0 -69 0 -133 65 -64 65 -64 65 -130 65 -61 0 -67 2 -100 35 -34 33 -39
35 -104 35 -64 0 -70 2 -90 30 -18 24 -30 30 -62 30 -32 0 -43 6 -64 33 -25
32 -25 32 -130 35 -101 4 -105 5 -130 33 -21 23 -35 29 -65 29 -33 0 -43 5
-61 30 -21 30 -22 30 -121 30 -100 0 -100 0 -135 35 -35 35 -35 35 -134 35
-99 0 -100 0 -122 30 -17 24 -29 30 -60 30 -29 0 -45 7 -72 35 -35 35 -35 35
-200 35 -165 0 -165 0 -186 30 -20 28 -25 30 -90 30 -66 0 -71 2 -104 35 -34
33 -39 35 -104 35 -64 0 -70 2 -90 30 -23 30 -23 30 -350 30 -327 0 -327 0
-352 29 -25 30 -25 30 -164 34 -139 5 -139 5 -163 36 -24 31 -24 31 -384 31
-359 0 -359 0 -386 30 -26 30 -26 30 -445 30 -419 0 -419 0 -454 35 -35 35
-35 35 -132 35 -96 0 -99 1 -127 30 -28 29 -31 30 -127 30 -97 0 -97 0 -132
35 -35 35 -35 35 -229 35 -194 0 -194 0 -220 30 -20 22 -36 30 -62 30 -26 0
-43 8 -69 35 -33 33 -38 34 -101 33 -63 -2 -67 -1 -91 30 -25 32 -25 32 -159
32 -134 0 -134 0 -157 30 -18 24 -29 30 -61 30 -32 0 -44 6 -70 35 -25 28 -38
35 -69 35 -30 0 -42 6 -60 30 -22 30 -22 30 -124 30 -102 0 -102 0 -166 65
-65 65 -65 65 -161 65 -96 0 -96 0 -131 35 -26 26 -44 35 -68 35 -27 0 -42 11
-88 58 -47 50 -62 60 -99 65 -34 4 -50 13 -68 36 -19 24 -32 31 -61 31 -31 0
-44 9 -99 65 -53 55 -68 65 -97 65 -31 0 -51 17 -223 190 -166 166 -193 190
-221 190 -48 0 -132 84 -132 133 0 20 -7 42 -15 49 -105 89 -175 171 -175 204
0 28 -7 42 -35 67 -27 24 -35 38 -35 66 0 30 -9 44 -66 98 -65 64 -65 64 -63
193 3 129 3 129 -65 194 -68 66 -68 66 -61 126 7 60 7 61 -29 93 -28 26 -36
41 -36 68 0 19 -4 40 -9 47 -10 16 -113 25 -151 14z"/>
<path d="M29695 17953 c-27 -7 -35 -21 -35 -62 0 -27 -8 -42 -36 -68 -36 -32
-36 -33 -29 -93 7 -60 7 -60 -61 -126 -68 -65 -68 -65 -65 -194 2 -129 2 -129
-63 -193 -57 -54 -66 -68 -66 -98 0 -28 -8 -42 -35 -66 -28 -25 -35 -39 -35
-67 0 -33 -70 -115 -175 -204 -8 -7 -15 -29 -15 -49 0 -49 -84 -133 -132 -133
-28 0 -55 -24 -221 -190 -172 -173 -192 -190 -223 -190 -29 0 -44 -10 -97 -65
-55 -56 -68 -65 -99 -65 -29 0 -42 -7 -61 -31 -18 -23 -34 -32 -68 -36 -37 -5
-52 -15 -99 -65 -46 -47 -61 -58 -88 -58 -24 0 -42 -9 -68 -35 -35 -35 -35
-35 -131 -35 -96 0 -96 0 -161 -65 -64 -65 -64 -65 -166 -65 -102 0 -102 0
-124 -30 -18 -24 -30 -30 -60 -30 -31 0 -44 -7 -69 -35 -26 -29 -38 -35 -70
-35 -32 0 -43 -6 -61 -30 -23 -30 -23 -30 -157 -30 -134 0 -134 0 -159 -32
-24 -31 -28 -32 -91 -30 -63 1 -68 0 -101 -33 -26 -27 -43 -35 -69 -35 -26 0
-42 -8 -62 -30 -26 -30 -26 -30 -220 -30 -194 0 -194 0 -229 -35 -35 -35 -35
-35 -132 -35 -96 0 -99 -1 -127 -30 -28 -29 -31 -30 -127 -30 -97 0 -97 0
-132 -35 -35 -35 -35 -35 -454 -35 -419 0 -419 0 -445 -30 -27 -30 -27 -30
-386 -30 -360 0 -360 0 -384 -31 -24 -31 -24 -31 -163 -36 -139 -4 -139 -4
-164 -34 -25 -29 -25 -29 -352 -29 -327 0 -327 0 -350 -30 -20 -28 -26 -30
-90 -30 -65 0 -70 -2 -104 -35 -33 -33 -38 -35 -104 -35 -65 0 -70 -2 -90 -30
-21 -30 -21 -30 -186 -30 -165 0 -165 0 -200 -35 -27 -28 -43 -35 -72 -35 -31
0 -43 -6 -60 -30 -22 -30 -23 -30 -122 -30 -99 0 -99 0 -134 -35 -35 -35 -35
-35 -135 -35 -99 0 -100 0 -121 -30 -18 -25 -28 -30 -61 -30 -30 0 -44 -6 -65
-29 -25 -28 -29 -29 -130 -33 -105 -3 -105 -3 -130 -35 -21 -27 -32 -33 -64
-33 -32 0 -44 -6 -62 -30 -20 -28 -26 -30 -90 -30 -65 0 -70 -2 -104 -35 -33
-33 -39 -35 -100 -35 -66 0 -66 0 -130 -65 -64 -65 -64 -65 -133 -65 -66 0
-71 -2 -91 -30 -21 -30 -22 -30 -122 -30 -101 0 -101 0 -194 -95 -93 -95 -93
-95 -158 -95 -65 0 -66 -1 -116 -49 -42 -40 -50 -54 -50 -84 0 -45 -22 -67
-67 -67 -31 0 -44 -9 -95 -61 -48 -50 -66 -62 -100 -66 -38 -6 -112 -69 -200
-173 -12 -14 -30 -20 -56 -20 -48 0 -62 -14 -62 -62 0 -21 -7 -43 -15 -50 -8
-7 -139 -136 -290 -287 -253 -253 -275 -277 -275 -309 0 -30 -12 -45 -95 -127
-85 -83 -95 -96 -95 -128 0 -20 -7 -42 -15 -49 -9 -7 -53 -50 -100 -96 -76
-75 -84 -87 -83 -119 1 -28 -5 -40 -30 -60 -26 -20 -32 -32 -32 -62 0 -33 -7
-44 -65 -96 -60 -55 -65 -63 -65 -102 0 -37 -4 -45 -30 -58 -26 -14 -30 -21
-30 -58 0 -39 -5 -46 -65 -102 -54 -50 -65 -65 -65 -93 0 -40 -16 -72 -35 -72
-20 0 -35 -32 -35 -74 0 -27 -6 -39 -30 -56 -24 -17 -30 -29 -30 -58 0 -43 -7
-55 -37 -71 -18 -9 -23 -20 -23 -52 0 -34 -6 -46 -35 -72 -34 -29 -35 -33 -35
-100 0 -73 -5 -81 -115 -175 -9 -7 -15 -29 -15 -52 0 -32 -5 -43 -30 -60 -30
-21 -30 -21 -30 -125 0 -83 -3 -107 -16 -117 -55 -46 -57 -48 -50 -102 7 -67
1 -89 -35 -110 -29 -17 -29 -17 -29 -127 0 -110 0 -110 -29 -127 -36 -20 -42
-41 -35 -108 7 -54 5 -56 -50 -102 -12 -9 -16 -31 -16 -82 0 -69 -3 -75 -45
-104 -18 -13 -19 -25 -16 -179 3 -179 6 -166 -53 -215 -10 -8 -16 -28 -16 -52
0 -32 -5 -43 -30 -60 -30 -21 -30 -21 -30 -159 0 -139 0 -139 -36 -166 -35
-27 -35 -27 -33 -323 2 -279 1 -296 -17 -308 -45 -31 -44 -28 -44 -234 0 -169
-2 -201 -16 -212 -57 -47 -53 -15 -52 -404 0 -358 0 -358 -31 -383 -31 -26
-31 -26 -31 -256 0 -230 0 -230 30 -255 30 -25 30 -25 30 -2320 0 -2295 0
-2295 -30 -2320 -54 -44 -44 -78 49 -171 79 -79 79 -79 240 -79 162 0 162 0
197 -35 24 -24 44 -35 64 -35 20 0 40 11 64 35 35 35 35 35 294 35 259 0 259
0 285 30 27 30 27 30 192 30 165 0 165 0 190 29 18 19 39 30 66 34 34 4 51 16
98 66 58 61 58 61 124 61 66 0 66 0 167 100 84 84 105 100 131 100 28 0 65 33
320 288 159 158 295 293 304 300 8 7 15 29 15 50 0 34 7 44 65 97 57 53 65 64
65 98 0 38 20 63 110 139 13 12 20 30 20 55 0 31 6 43 32 65 32 26 33 29 30
93 -3 67 -3 67 63 129 57 55 65 67 65 99 0 21 7 42 16 49 56 47 57 47 50 110
-7 59 -7 60 28 92 30 27 36 39 36 75 0 36 4 44 29 59 36 20 42 41 35 108 -7
54 -5 56 50 102 13 10 16 37 16 147 0 134 0 134 32 159 32 25 32 25 30 125 -3
106 -5 102 52 149 15 12 16 125 16 1145 0 1132 0 1132 30 1157 30 25 30 25 30
1287 0 1262 0 1262 -30 1278 -17 9 -30 24 -30 35 0 10 14 28 30 40 24 17 30
29 30 58 0 31 9 45 49 85 48 47 49 47 117 47 69 1 69 1 129 65 59 65 59 65
127 65 63 0 70 2 95 30 26 29 28 30 124 30 98 0 98 0 133 35 27 27 44 35 70
35 28 0 40 7 58 30 18 24 29 30 60 30 31 0 45 7 69 33 29 32 31 32 134 35 103
4 105 4 126 33 19 28 24 29 94 29 70 0 75 1 95 30 21 30 21 30 281 30 260 0
260 0 296 35 36 35 36 35 199 35 164 0 164 0 191 30 26 30 26 30 189 30 163 0
163 0 198 35 35 35 35 35 520 35 485 0 485 0 508 30 21 29 25 30 94 30 70 0
73 1 98 33 25 32 25 32 165 37 137 5 140 5 161 33 21 27 21 27 285 27 264 0
264 0 287 29 22 29 26 29 131 33 108 4 109 5 134 36 24 32 24 32 128 32 104 0
104 0 125 30 21 30 22 30 121 30 100 0 100 0 135 35 27 28 43 35 72 35 31 0
43 6 60 30 22 30 23 30 122 30 99 0 99 0 134 35 34 33 39 35 104 35 64 0 70 2
90 30 18 24 30 30 62 30 32 0 43 6 64 32 24 31 28 32 95 33 70 1 70 1 128 61
48 51 65 62 99 66 33 5 51 16 99 67 52 53 64 61 96 61 44 0 55 12 62 70 3 26
13 50 24 57 86 62 105 90 106 162 1 99 -3 102 -129 100 -145 -2 -161 17 -73
89 48 39 56 42 112 42 61 0 61 0 124 65 54 56 68 65 98 65 32 0 47 12 159 125
106 107 129 125 155 125 27 0 48 16 132 100 87 86 105 100 133 100 53 0 446
395 446 447 0 50 85 133 137 133 51 0 123 76 123 130 0 31 6 43 30 60 25 17
30 28 30 60 0 23 6 45 15 52 101 85 185 182 185 213 0 31 73 116 175 203 8 7
15 29 15 50 0 30 6 42 32 64 32 26 33 28 30 97 -2 69 -2 70 33 97 34 26 35 28
35 94 0 90 -10 100 -99 100 -67 0 -67 0 -126 -65 -55 -60 -63 -65 -102 -65
-48 0 -63 -17 -63 -70 0 -47 -75 -120 -123 -120 -30 0 -44 -10 -98 -65 -53
-54 -70 -65 -96 -65 -27 0 -44 -12 -97 -65 -53 -54 -70 -65 -97 -65 -39 0 -52
-7 -67 -36 -8 -16 -24 -23 -58 -27 -57 -6 -67 -16 -74 -75 -5 -47 -5 -47 -51
-52 -36 -4 -54 -13 -77 -38 -24 -26 -38 -32 -70 -32 -85 0 -73 17 218 309 258
258 273 271 309 271 47 0 61 14 61 63 0 47 73 127 115 127 54 0 75 17 75 59 0
59 82 141 140 141 44 0 60 18 60 69 0 29 80 120 175 199 8 7 15 29 15 49 0 33
9 46 95 129 95 93 95 93 95 161 0 67 1 71 35 100 28 25 35 39 35 68 0 36 35
79 103 128 13 9 20 28 21 56 2 35 8 48 34 70 27 22 32 33 32 68 0 37 4 45 29
57 34 18 41 40 34 110 -4 42 -2 56 11 67 59 49 56 36 56 219 0 169 0 169 30
185 32 16 34 24 30 111 -1 38 3 55 15 65 60 50 55 -30 55 823 0 775 0 775 -35
802 -30 23 -35 32 -35 70 0 23 -5 46 -11 49 -14 9 -119 15 -144 8z"/>
</g>
</svg>